<?xml version="1.0" encoding="UTF-8" standalone="no"?>
<!-- Created with Inkscape (http://www.inkscape.org/) -->

<svg
   width="210mm"
   height="297mm"
   viewBox="0 0 210 297"
   version="1.1"
   id="svg1"
   inkscape:version="1.3.2 (1:1.3.2+202311252150+091e20ef0f)"
   sodipodi:docname="a2_0012.svg"
   inkscape:export-filename="a2_0008.pdf"
   inkscape:export-xdpi="96"
   inkscape:export-ydpi="96"
   xml:space="preserve"
   xmlns:inkscape="http://www.inkscape.org/namespaces/inkscape"
   xmlns:sodipodi="http://sodipodi.sourceforge.net/DTD/sodipodi-0.dtd"
   xmlns="http://www.w3.org/2000/svg"
   xmlns:svg="http://www.w3.org/2000/svg"><sodipodi:namedview
     id="namedview1"
     pagecolor="#ffffff"
     bordercolor="#000000"
     borderopacity="0.25"
     inkscape:showpageshadow="2"
     inkscape:pageopacity="0.0"
     inkscape:pagecheckerboard="0"
     inkscape:deskcolor="#d1d1d1"
     inkscape:document-units="mm"
     inkscape:zoom="0.49449362"
     inkscape:cx="687.57207"
     inkscape:cy="722.96181"
     inkscape:window-width="1920"
     inkscape:window-height="1043"
     inkscape:window-x="0"
     inkscape:window-y="0"
     inkscape:window-maximized="1"
     inkscape:current-layer="layer2"
     inkscape:export-bgcolor="#ffffffff"
     showguides="false"><inkscape:page
       x="0"
       y="0"
       width="210"
       height="297"
       id="page24"
       margin="0"
       bleed="0"
       inkscape:export-filename="a2_0012.pdf"
       inkscape:export-xdpi="96"
       inkscape:export-ydpi="96" /><inkscape:page
       x="220"
       y="0"
       width="210"
       height="297"
       id="page25"
       margin="0"
       bleed="0" /></sodipodi:namedview><defs
     id="defs1"><inkscape:path-effect
       effect="powerclip"
       id="path-effect5"
       is_visible="true"
       lpeversion="1"
       inverse="true"
       flatten="false"
       hide_clip="false"
       message="Use fill-rule evenodd on &lt;b&gt;fill and stroke&lt;/b&gt; dialog if no flatten result after convert clip to paths." /><clipPath
       clipPathUnits="userSpaceOnUse"
       id="clipPath5"><path
         style="display:block;fill:#5fbcd3;fill-opacity:0.977922;stroke-width:0.355682;stroke-dasharray:2.84545, 0.355682;stroke-opacity:0.67451"
         id="path5"
         sodipodi:type="arc"
         sodipodi:cx="42.391724"
         sodipodi:cy="29.848696"
         sodipodi:rx="26.610085"
         sodipodi:ry="67.639015"
         sodipodi:start="0"
         sodipodi:end="6.2760755"
         sodipodi:arc-type="slice" /></clipPath></defs><g
     inkscape:groupmode="layer"
     id="layer2"
     inkscape:label="Layer 2"
     style="display:inline"
     transform="matrix(1.0736071,0,0,0.66263644,-15.46483,53.018564)"><rect
       style="fill:#2ca089;fill-opacity:0.37380663;stroke-width:0.240921;stroke-dasharray:1.92738, 0.240921;stroke-opacity:0.67451"
       id="rect19"
       width="195.29774"
       height="87.647079"
       x="14.497199"
       y="-11.467537"
       clip-path="none" /><rect
       style="display:inline;fill:#2ca089;fill-opacity:0.44618079;stroke-width:0.307703;stroke-dasharray:2.46164, 0.307703;stroke-opacity:0.67451"
       id="rect19-5"
       width="116.93369"
       height="238.78859"
       x="14.436762"
       y="88.591759" /><rect
       style="fill:#217867;fill-opacity:0.977922;stroke-width:0.24698;stroke-dasharray:1.97583, 0.24698;stroke-opacity:0.67451"
       id="rect20"
       width="195.57983"
       height="4.202734"
       x="14.278024"
       y="-32.513195" /><rect
       style="display:inline;fill:#bec8b7;fill-opacity:0.977922;stroke-width:0.240921;stroke-dasharray:1.92738, 0.240921;stroke-opacity:0.67451"
       id="rect19-2"
       width="195.29774"
       height="87.647079"
       x="219.32718"
       y="-10.854665"
       clip-path="none" /><rect
       style="display:inline;fill:#bec8b7;fill-opacity:0.977922;stroke-width:0.247832;stroke-dasharray:1.98267, 0.247832;stroke-opacity:0.67451"
       id="rect19-5-8"
       width="116.93369"
       height="154.90504"
       x="219.26674"
       y="89.204628" /><rect
       style="display:inline;fill:#bec8b7;fill-opacity:0.977922;stroke-width:0.192886;stroke-dasharray:1.5431, 0.192886;stroke-opacity:0.67451"
       id="rect19-5-8-7"
       width="115.30053"
       height="95.161324"
       x="299.52924"
       y="256.95264" /><rect
       style="display:inline;fill:#6f916f;fill-opacity:0.977922;stroke-width:0.24698;stroke-dasharray:1.97583, 0.24698;stroke-opacity:0.67451"
       id="rect20-9"
       width="195.57983"
       height="4.202734"
       x="219.108"
       y="-31.900335" /><title
       id="title1">rice-bowl</title><path
       d="m 178.13392,357.48414 c -3.29426,-1.70143 -5.63064,-4.10374 -7.32535,-7.71486 -1.69472,-3.61109 -2.6526,-8.33449 -3.21749,-14.78978 a 0.57411524,0.94975553 0 0 1 0,-0.34027 5.3573855,8.8626925 0 0 1 1.26488,-5.72394 c 0.61404,-1.24433 1.48902,-2.13314 2.66488,-2.82387 a 3.6473203,6.0337412 0 0 1 0.98859,-3.55524 4.3964333,7.2729944 0 0 1 2.43154,-2.09251 8.7867262,14.535832 0 0 1 4.38722,-3.89551 9.3792619,15.516061 0 0 1 5.30827,0.60947 c 0.1075,0.0711 0.45745,0.36059 0.77368,0.6247 a 0.27631215,0.4571016 0 0 1 0.1075,0.14221 6.9507856,11.498645 0 0 1 3.58899,-2.39217 7.5249008,12.4484 0 0 1 2.60654,0.30982 l 4.15389,-13.75877 c 0.37764,-1.21893 0.98245,-2.38707 2.14911,-1.4424 a 1.9280448,3.1895534 0 0 1 0.77366,1.1072 c 0.53421,1.35099 0.086,2.2906 -0.30701,3.45366 l -4.50696,12.36206 a 5.1762476,8.5630368 0 0 1 0.92104,1.36114 l 0.0338,0.066 a 4.1231913,6.8209718 0 0 1 0.9057,2.83911 c 0.39297,0.18284 0.7706,0.39108 1.12674,0.61455 l 5.21922,-14.40379 c 0.43596,-1.16307 1.09297,-2.24487 2.21664,-1.15291 a 1.9526058,3.2301847 0 0 1 0.71841,1.20879 c 0.46359,1.41701 -0.0245,2.29566 -0.48508,3.39779 l -5.45564,12.86995 a 7.5371814,12.468716 0 0 1 1.37543,2.03155 5.3297543,8.8169821 0 0 1 1.2864,7.86215 0.72455185,1.198622 0 0 1 -0.0491,0.23871 0.65700889,1.086886 0 0 1 0.0337,0.34028 0.75218307,1.2443321 0 0 1 0,0.13714 14.497177,23.982597 0 0 1 -3.25435,14.18539 c -1.80524,3.55523 -4.44249,6.54163 -8.13892,8.35987 h -0.0184 v 3.11337 a 0.26403161,0.43678598 0 0 1 -0.26405,0.43679 h -11.65115 a 0.34078498,0.56375865 0 0 1 -0.34079,-0.55869 v -3.01178 h -0.0215 z m 14.68751,-26.00907 a 0.66622367,1.10213 0 0 1 0,-2.20426 h 1.57806 a 0.66622367,1.10213 0 0 1 0,2.20426 z m -0.39911,-7.61836 a 0.66381863,1.0981514 0 1 1 -0.54035,2.00616 l -1.43989,-1.07164 a 0.66382115,1.0981555 0 0 1 0.54034,-2.00618 z m -7.98235,0.65517 a 0.66314915,1.0970439 0 1 1 0.49736,-2.03157 l 1.58112,1.06657 a 0.66314915,1.0970439 0 1 1 -0.50043,2.03156 z m -0.57719,6.96319 a 0.66622367,1.10213 0 0 1 0,-2.20426 h 1.57805 a 0.66622367,1.10213 0 0 1 0,2.20426 z m -5.37274,-5.27699 a 0.67083834,1.109764 0 0 1 -0.54034,-2.03156 l 1.4399,-1.07166 a 0.66314915,1.0970439 0 1 1 0.54033,2.00109 z m -3.09469,5.27699 a 0.66622367,1.10213 0 0 1 0,-2.20426 h 1.58112 a 0.66622367,1.10213 0 0 1 0,2.20426 z m -6.22316,2.34137 h 31.36757 v 0 a 4.0402976,6.6838413 0 0 0 -0.99473,-5.95249 c -0.92103,-1.77253 -2.43462,-3.22002 -4.45476,-4.06312 a 0.6662193,1.1021228 0 0 1 -0.5035,-0.95483 2.6710175,4.4186488 0 0 0 -0.66008,-2.41756 l -0.0306,-0.0507 a 4.6788857,7.7402539 0 0 0 -1.97717,-2.10774 6.2385142,10.320338 0 0 0 -2.68023,-0.50789 5.6367678,9.3248729 0 0 0 -3.14996,2.23471 0.65700889,1.086886 0 0 1 -0.45745,0.29966 2.6249654,4.3424654 0 0 1 -0.8228,-0.54852 c -0.27937,-0.22855 -0.58638,-0.5079 -0.65086,-0.5079 a 7.9823509,13.205158 0 0 0 -4.55301,-0.50789 7.3990253,12.240165 0 0 0 -3.85609,3.55523 0.64779847,1.0716493 0 0 1 -0.41447,0.35046 3.0701349,5.0789068 0 0 0 -1.86357,1.47288 2.4069859,3.9818629 0 0 0 -0.66008,2.71213 0.6662193,1.1021228 0 0 1 -0.46359,1.12752 c -1.15437,0.59423 -1.96796,1.3256 -2.47453,2.35154 a 3.5521462,5.876295 0 0 0 -0.69999,3.5146 z m 28.10094,5.23127 a 0.46666052,0.77199382 0 1 1 0.85964,0.58915 17.637926,29.17832 0 0 1 -0.76139,2.70199 17.192756,28.441878 0 0 1 -0.92104,2.53945 0.46666052,0.77199382 0 1 1 -0.7706,-0.86341 16.37303,27.08581 0 0 0 0.88112,-2.40741 16.925654,28.000014 0 0 0 0.73376,-2.53945 z m -2.5697,7.07492 a 0.46904163,0.77593289 0 1 1 0.7092,1.01579 c -0.27324,0.53835 -0.55877,1.05132 -0.84736,1.52366 -0.28859,0.47234 -0.57105,0.89896 -0.87806,1.31544 a 0.47253411,0.78171048 0 1 1 -0.61402,-1.18847 c 0.27939,-0.38091 0.5557,-0.79739 0.82587,-1.23925 0.27017,-0.44186 0.54035,-0.93452 0.79209,-1.42717 z m -22.91242,2.39216 c 1.50436,3.24034 3.64733,5.41412 6.66527,6.9835 h 11.70642 c 3.37715,-1.69128 5.80256,-4.40849 7.44507,-7.66407 a 13.094125,21.661538 0 0 0 2.92277,-11.98621 h -31.59475 c 0.54035,5.49537 1.4184,9.58896 2.85522,12.66678 z"
       id="path1-4"
       style="fill:#217867;fill-opacity:0.522341;stroke-width:0.394879" /></g><g
     inkscape:label="Layer 1"
     inkscape:groupmode="layer"
     id="layer1"
     style="display:inline"><text
       xml:space="preserve"
       style="font-size:3.88056px;line-height:2.5;white-space:pre;inline-size:163.346;display:inline;fill:#000000;fill-opacity:0.977922;stroke-width:0.3;stroke-dasharray:2.4, 0.3;stroke-opacity:0.67451"
       x="33.917343"
       y="59.207859"
       id="text1"
       transform="translate(-19.007025,70.545344)"><tspan
         x="33.917343"
         y="59.207859"
         id="tspan10"><tspan
           style="font-family:Kalimati;-inkscape-font-specification:Kalimati"
           id="tspan1">Beim Asiatisch Kochen benutzt man Reis, Gem</tspan><tspan
           style="font-family:Kalimati;-inkscape-font-specification:Kalimati"
           id="tspan8">ü</tspan><tspan
           style="font-family:Kalimati;-inkscape-font-specification:Kalimati"
           id="tspan9">se, 
</tspan></tspan><tspan
         x="33.917343"
         y="68.990023"
         id="tspan14"><tspan
           style="font-family:Kalimati;-inkscape-font-specification:Kalimati"
           id="tspan11">Fleisch oder Fisch und viele Gew</tspan><tspan
           style="font-family:Kalimati;-inkscape-font-specification:Kalimati"
           id="tspan12">ü</tspan><tspan
           style="font-family:Kalimati;-inkscape-font-specification:Kalimati"
           id="tspan13">rze. 
</tspan></tspan><tspan
         x="33.917343"
         y="78.772188"
         id="tspan21"><tspan
           style="font-family:Kalimati;-inkscape-font-specification:Kalimati"
           id="tspan15">Man schneidet die Zutaten, br</tspan><tspan
           style="font-family:Kalimati;-inkscape-font-specification:Kalimati"
           id="tspan16">ä</tspan><tspan
           style="font-family:Kalimati;-inkscape-font-specification:Kalimati"
           id="tspan17">t oder d</tspan><tspan
           style="font-family:Kalimati;-inkscape-font-specification:Kalimati"
           id="tspan18">ä</tspan><tspan
           style="font-family:Kalimati;-inkscape-font-specification:Kalimati"
           id="tspan20">mpft sie 
</tspan></tspan><tspan
         x="33.917343"
         y="88.554354"
         id="tspan23"><tspan
           style="font-family:Kalimati;-inkscape-font-specification:Kalimati"
           id="tspan22">und mischt alles zusammen. 
</tspan></tspan><tspan
         x="33.917343"
         y="98.336519"
         id="tspan25"><tspan
           style="font-family:Kalimati;-inkscape-font-specification:Kalimati"
           id="tspan24">Es ist wichtig, Rezepte zu folgen, besonders 
</tspan></tspan><tspan
         x="33.917343"
         y="108.11868"
         id="tspan29"><tspan
           style="font-family:Kalimati;-inkscape-font-specification:Kalimati"
           id="tspan26">f</tspan><tspan
           style="font-family:Kalimati;-inkscape-font-specification:Kalimati"
           id="tspan27">ü</tspan><tspan
           style="font-family:Kalimati;-inkscape-font-specification:Kalimati"
           id="tspan28">r neue Gerichte. Asiatisch kochen kann zu Hause 
</tspan></tspan><tspan
         x="33.917343"
         y="117.90085"
         id="tspan31"><tspan
           style="font-family:Kalimati;-inkscape-font-specification:Kalimati"
           id="tspan30">oder mit Freunden zusammen stattfinden.</tspan></tspan></text><text
       xml:space="preserve"
       style="font-size:3.88056px;line-height:2.5;white-space:pre;inline-size:163.346;display:inline;fill:#000000;fill-opacity:0.977922;stroke-width:0.3;stroke-dasharray:2.4, 0.3;stroke-opacity:0.67451"
       x="33.917343"
       y="59.207859"
       id="text1-2"
       transform="translate(-19.033552,145.73268)"><tspan
         x="33.917343"
         y="59.207859"
         id="tspan37"><tspan
           style="font-family:Kalimati;-inkscape-font-specification:Kalimati"
           id="tspan32">F</tspan><tspan
           style="font-family:Kalimati;-inkscape-font-specification:Kalimati"
           id="tspan33">ü</tspan><tspan
           style="font-family:Kalimati;-inkscape-font-specification:Kalimati"
           id="tspan34">r Asiatisch Kochen braucht man T</tspan><tspan
           style="font-family:Kalimati;-inkscape-font-specification:Kalimati"
           id="tspan35">ö</tspan><tspan
           style="font-family:Kalimati;-inkscape-font-specification:Kalimati"
           id="tspan36">pfe, Pfannen, 
</tspan></tspan><tspan
         x="33.917343"
         y="68.990023"
         id="tspan39"><tspan
           style="font-family:Kalimati;-inkscape-font-specification:Kalimati"
           id="tspan38">Messer und Zutaten. Manchmal braucht man 
</tspan></tspan><tspan
         x="33.917343"
         y="78.772188"
         id="tspan45"><tspan
           style="font-family:Kalimati;-inkscape-font-specification:Kalimati"
           id="tspan40">besondere Gew</tspan><tspan
           style="font-family:Kalimati;-inkscape-font-specification:Kalimati"
           id="tspan41">ü</tspan><tspan
           style="font-family:Kalimati;-inkscape-font-specification:Kalimati"
           id="tspan42">rze oder So</tspan><tspan
           style="font-family:Kalimati;-inkscape-font-specification:Kalimati"
           id="tspan43">ß</tspan><tspan
           style="font-family:Kalimati;-inkscape-font-specification:Kalimati"
           id="tspan44">en. Asiatisch kochen 
</tspan></tspan><tspan
         x="33.917343"
         y="88.554354"
         id="tspan49"><tspan
           style="font-family:Kalimati;-inkscape-font-specification:Kalimati"
           id="tspan46">verbessert die Kochf</tspan><tspan
           style="font-family:Kalimati;-inkscape-font-specification:Kalimati"
           id="tspan47">ä</tspan><tspan
           style="font-family:Kalimati;-inkscape-font-specification:Kalimati"
           id="tspan48">higkeiten und macht Freude. 
</tspan></tspan><tspan
         x="33.917343"
         y="98.336519"
         id="tspan51"><tspan
           style="font-family:Kalimati;-inkscape-font-specification:Kalimati"
           id="tspan50">Wer asiatisch kocht, kann Freunde oder Familie 
</tspan></tspan><tspan
         x="33.917343"
         y="108.11868"
         id="tspan55"><tspan
           style="font-family:Kalimati;-inkscape-font-specification:Kalimati"
           id="tspan52">mit neuen Gerichten </tspan><tspan
           style="font-family:Kalimati;-inkscape-font-specification:Kalimati"
           id="tspan53">ü</tspan><tspan
           style="font-family:Kalimati;-inkscape-font-specification:Kalimati"
           id="tspan54">berraschen.</tspan></tspan></text><text
       xml:space="preserve"
       style="font-size:3.88056px;line-height:2.5;white-space:pre;inline-size:163.346;display:inline;fill:#000000;fill-opacity:0.977922;stroke-width:0.3;stroke-dasharray:2.4, 0.3;stroke-opacity:0.67451"
       x="33.917343"
       y="59.207859"
       id="text1-5"
       transform="translate(-18.948286,-2.0823804)"><tspan
         x="33.917343"
         y="59.207859"
         id="tspan59"><tspan
           style="font-family:Kalimati;-inkscape-font-specification:Kalimati"
           id="tspan56">Asiatisch kochen ist ein Hobby f</tspan><tspan
           style="font-family:Kalimati;-inkscape-font-specification:Kalimati"
           id="tspan57">ü</tspan><tspan
           style="font-family:Kalimati;-inkscape-font-specification:Kalimati"
           id="tspan58">r viele Menschen. 
</tspan></tspan><tspan
         x="33.917343"
         y="68.990023"
         id="tspan63"><tspan
           style="font-family:Kalimati;-inkscape-font-specification:Kalimati"
           id="tspan60">Man bereitet Gerichte aus L</tspan><tspan
           style="font-family:Kalimati;-inkscape-font-specification:Kalimati"
           id="tspan61">ä</tspan><tspan
           style="font-family:Kalimati;-inkscape-font-specification:Kalimati"
           id="tspan62">ndern wie China, Japan 
</tspan></tspan><tspan
         x="33.917343"
         y="78.772188"
         id="tspan65"><tspan
           style="font-family:Kalimati;-inkscape-font-specification:Kalimati"
           id="tspan64">oder Thailand zu. Asiatische Gerichte sind oft lecker, 
</tspan></tspan><tspan
         x="33.917343"
         y="88.554354"
         id="tspan69"><tspan
           style="font-family:Kalimati;-inkscape-font-specification:Kalimati"
           id="tspan66">gesund und bunt. Kochen macht Spa</tspan><tspan
           style="font-family:Kalimati;-inkscape-font-specification:Kalimati"
           id="tspan67">ß </tspan><tspan
           style="font-family:Kalimati;-inkscape-font-specification:Kalimati"
           id="tspan68">und man kann 
</tspan></tspan><tspan
         x="33.917343"
         y="98.336519"
         id="tspan71"><tspan
           style="font-family:Kalimati;-inkscape-font-specification:Kalimati"
           id="tspan70">neue Geschmacksrichtungen entdecken.</tspan></tspan></text><text
       xml:space="preserve"
       style="font-size:3.88056px;line-height:2.5;white-space:pre;inline-size:163.346;display:inline;fill:#000000;fill-opacity:0.977922;stroke-width:0.3;stroke-dasharray:2.4, 0.3;stroke-opacity:0.67451"
       x="33.917343"
       y="59.207859"
       id="text1-5-9"
       transform="translate(202.58912,1.5006548)"><tspan
         x="33.917343"
         y="59.207859"
         id="tspan75"><tspan
           style="font-family:Kalimati;-inkscape-font-specification:Kalimati"
           id="tspan72">Pflanzen pflegen ist ein Hobby f</tspan><tspan
           style="font-family:Kalimati;-inkscape-font-specification:Kalimati"
           id="tspan73">ü</tspan><tspan
           style="font-family:Kalimati;-inkscape-font-specification:Kalimati"
           id="tspan74">r viele Menschen. 
</tspan></tspan><tspan
         x="33.917343"
         y="68.990023"
         id="tspan81"><tspan
           style="font-family:Kalimati;-inkscape-font-specification:Kalimati"
           id="tspan76">Man k</tspan><tspan
           style="font-family:Kalimati;-inkscape-font-specification:Kalimati"
           id="tspan77">ü</tspan><tspan
           style="font-family:Kalimati;-inkscape-font-specification:Kalimati"
           id="tspan78">mmert sich um Blumen, Kr</tspan><tspan
           style="font-family:Kalimati;-inkscape-font-specification:Kalimati"
           id="tspan79">ä</tspan><tspan
           style="font-family:Kalimati;-inkscape-font-specification:Kalimati"
           id="tspan80">uter oder Zimmerpflanzen. 
</tspan></tspan><tspan
         x="33.917343"
         y="78.772188"
         id="tspan83"><tspan
           style="font-family:Kalimati;-inkscape-font-specification:Kalimati"
           id="tspan82">Pflanzen brauchen Wasser, Licht und frische Luft. Sie wachsen 
</tspan></tspan><tspan
         x="33.917343"
         y="88.554354"
         id="tspan89"><tspan
           style="font-family:Kalimati;-inkscape-font-specification:Kalimati"
           id="tspan84">und sehen sch</tspan><tspan
           style="font-family:Kalimati;-inkscape-font-specification:Kalimati"
           id="tspan85">ö</tspan><tspan
           style="font-family:Kalimati;-inkscape-font-specification:Kalimati"
           id="tspan86">n aus. Pflanzen pflegen macht Spa</tspan><tspan
           style="font-family:Kalimati;-inkscape-font-specification:Kalimati"
           id="tspan87">ß </tspan><tspan
           style="font-family:Kalimati;-inkscape-font-specification:Kalimati"
           id="tspan88">und entspannt.</tspan></tspan></text><text
       xml:space="preserve"
       style="font-size:3.88056px;line-height:2.5;white-space:pre;inline-size:163.346;display:inline;fill:#000000;fill-opacity:0.977922;stroke-width:0.3;stroke-dasharray:2.4, 0.3;stroke-opacity:0.67451"
       x="33.917343"
       y="59.207859"
       id="text1-5-9-0"
       transform="translate(196.72087,66.856508)"><tspan
         x="33.917343"
         y="59.207859"
         id="tspan95"><tspan
           style="font-family:Kalimati;-inkscape-font-specification:Kalimati"
           id="tspan90">Beim Pflanzen pflegen gie</tspan><tspan
           style="font-family:Kalimati;-inkscape-font-specification:Kalimati"
           id="tspan91">ß</tspan><tspan
           style="font-family:Kalimati;-inkscape-font-specification:Kalimati"
           id="tspan92">t man die Pflanzen regelm</tspan><tspan
           style="font-family:Kalimati;-inkscape-font-specification:Kalimati"
           id="tspan93">äß</tspan><tspan
           style="font-family:Kalimati;-inkscape-font-specification:Kalimati"
           id="tspan94">ig. 
</tspan></tspan><tspan
         x="33.917343"
         y="68.990023"
         id="tspan101"><tspan
           style="font-family:Kalimati;-inkscape-font-specification:Kalimati"
           id="tspan96">Man entfernt alte Bl</tspan><tspan
           style="font-family:Kalimati;-inkscape-font-specification:Kalimati"
           id="tspan97">ä</tspan><tspan
           style="font-family:Kalimati;-inkscape-font-specification:Kalimati"
           id="tspan98">tter und achtet auf Sch</tspan><tspan
           style="font-family:Kalimati;-inkscape-font-specification:Kalimati"
           id="tspan99">ä</tspan><tspan
           style="font-family:Kalimati;-inkscape-font-specification:Kalimati"
           id="tspan100">dlinge. 
</tspan></tspan><tspan
         x="33.917343"
         y="78.772188"
         id="tspan105"><tspan
           style="font-family:Kalimati;-inkscape-font-specification:Kalimati"
           id="tspan102">Manchmal braucht man D</tspan><tspan
           style="font-family:Kalimati;-inkscape-font-specification:Kalimati"
           id="tspan103">ü</tspan><tspan
           style="font-family:Kalimati;-inkscape-font-specification:Kalimati"
           id="tspan104">nger, damit die Pflanzen gesund 
</tspan></tspan><tspan
         x="33.917343"
         y="88.554354"
         id="tspan107"><tspan
           style="font-family:Kalimati;-inkscape-font-specification:Kalimati"
           id="tspan106">bleiben. Man kann Pflanzen im Haus, auf dem Balkon oder 
</tspan></tspan><tspan
         x="33.917343"
         y="98.336519"
         id="tspan111"><tspan
           style="font-family:Kalimati;-inkscape-font-specification:Kalimati"
           id="tspan108">im Garten pflegen.Beim Pflanzen pflegen gie</tspan><tspan
           style="font-family:Kalimati;-inkscape-font-specification:Kalimati"
           id="tspan109">ß</tspan><tspan
           style="font-family:Kalimati;-inkscape-font-specification:Kalimati"
           id="tspan110">t man 
</tspan></tspan><tspan
         x="33.917343"
         y="108.11868"
         id="tspan117"><tspan
           style="font-family:Kalimati;-inkscape-font-specification:Kalimati"
           id="tspan112">die Pflanzen regelm</tspan><tspan
           style="font-family:Kalimati;-inkscape-font-specification:Kalimati"
           id="tspan113">äß</tspan><tspan
           style="font-family:Kalimati;-inkscape-font-specification:Kalimati"
           id="tspan114">ig. Man entfernt alte Bl</tspan><tspan
           style="font-family:Kalimati;-inkscape-font-specification:Kalimati"
           id="tspan115">ä</tspan><tspan
           style="font-family:Kalimati;-inkscape-font-specification:Kalimati"
           id="tspan116">tter und 
</tspan></tspan><tspan
         x="33.917343"
         y="117.90085"
         id="tspan123"><tspan
           style="font-family:Kalimati;-inkscape-font-specification:Kalimati"
           id="tspan118">achtet auf Sch</tspan><tspan
           style="font-family:Kalimati;-inkscape-font-specification:Kalimati"
           id="tspan119">ä</tspan><tspan
           style="font-family:Kalimati;-inkscape-font-specification:Kalimati"
           id="tspan120">dlinge. Manchmal braucht man D</tspan><tspan
           style="font-family:Kalimati;-inkscape-font-specification:Kalimati"
           id="tspan121">ü</tspan><tspan
           style="font-family:Kalimati;-inkscape-font-specification:Kalimati"
           id="tspan122">nger, 
</tspan></tspan><tspan
         x="33.917343"
         y="127.68302"
         id="tspan125"><tspan
           style="font-family:Kalimati;-inkscape-font-specification:Kalimati"
           id="tspan124">damit die Pflanzen gesund bleiben. Man kann Pflanzen 
</tspan></tspan><tspan
         x="33.917343"
         y="137.46518"
         id="tspan127"><tspan
           style="font-family:Kalimati;-inkscape-font-specification:Kalimati"
           id="tspan126">im Haus, auf dem Balkon oder im Garten pflegen.</tspan></tspan></text><text
       xml:space="preserve"
       style="font-size:3.88056px;line-height:2.5;white-space:pre;inline-size:163.346;display:inline;fill:#000000;fill-opacity:0.977922;stroke-width:0.3;stroke-dasharray:2.4, 0.3;stroke-opacity:0.67451"
       x="33.917343"
       y="59.207859"
       id="text1-5-9-0-0"
       transform="translate(287.21274,176.75554)"><tspan
         x="33.917343"
         y="59.207859"
         id="tspan133"><tspan
           style="font-family:Kalimati;-inkscape-font-specification:Kalimati"
           id="tspan128">F</tspan><tspan
           style="font-family:Kalimati;-inkscape-font-specification:Kalimati"
           id="tspan129">ü</tspan><tspan
           style="font-family:Kalimati;-inkscape-font-specification:Kalimati"
           id="tspan130">r Pflanzen pflegen braucht man T</tspan><tspan
           style="font-family:Kalimati;-inkscape-font-specification:Kalimati"
           id="tspan131">ö</tspan><tspan
           style="font-family:Kalimati;-inkscape-font-specification:Kalimati"
           id="tspan132">pfe, Erde, 
</tspan></tspan><tspan
         x="33.917343"
         y="68.990023"
         id="tspan137"><tspan
           style="font-family:Kalimati;-inkscape-font-specification:Kalimati"
           id="tspan134">Wasser und manchmal D</tspan><tspan
           style="font-family:Kalimati;-inkscape-font-specification:Kalimati"
           id="tspan135">ü</tspan><tspan
           style="font-family:Kalimati;-inkscape-font-specification:Kalimati"
           id="tspan136">nger. Man kann verschiedene 
</tspan></tspan><tspan
         x="33.917343"
         y="78.772188"
         id="tspan139"><tspan
           style="font-family:Kalimati;-inkscape-font-specification:Kalimati"
           id="tspan138">Pflanzenarten ausprobieren. Pflanzen pflegen verbessert 
</tspan></tspan><tspan
         x="33.917343"
         y="88.554354"
         id="tspan141"><tspan
           style="font-family:Kalimati;-inkscape-font-specification:Kalimati"
           id="tspan140">die Stimmung und gibt Freude. Wer Pflanzen pflegt, 
</tspan></tspan><tspan
         x="33.917343"
         y="98.336519"
         id="tspan143"><tspan
           style="font-family:Kalimati;-inkscape-font-specification:Kalimati"
           id="tspan142">lernt Geduld und Verantwortung.</tspan></tspan></text><text
       xml:space="preserve"
       style="font-size:10.218px;line-height:2.5;fill:#000000;fill-opacity:0.977922;stroke-width:0.868937;stroke-dasharray:6.95147, 0.868937;stroke-opacity:0.67451"
       x="7.3285484"
       y="26.566006"
       id="text19"
       transform="scale(0.98579469,1.01441)"><tspan
         sodipodi:role="line"
         id="tspan19"
         style="font-style:normal;font-variant:normal;font-weight:normal;font-stretch:normal;font-family:Kalimati;-inkscape-font-specification:Kalimati;stroke-width:0.868937"
         x="7.3285484"
         y="26.566006">Asiatisch kochen</tspan></text><text
       xml:space="preserve"
       style="font-size:10.218px;line-height:2.5;display:inline;fill:#000000;fill-opacity:0.977922;stroke-width:0.868937;stroke-dasharray:6.95147, 0.868937;stroke-opacity:0.67451"
       x="233.05499"
       y="27.454327"
       id="text19-1"
       transform="scale(0.98579469,1.01441)"><tspan
         sodipodi:role="line"
         id="tspan19-2"
         style="font-style:normal;font-variant:normal;font-weight:normal;font-stretch:normal;font-family:Kalimati;-inkscape-font-specification:Kalimati;stroke-width:0.868937"
         x="233.05499"
         y="27.454327">Pflanzen pflegen</tspan></text><style
       type="text/css"
       id="style1">.st0{fill-rule:evenodd;clip-rule:evenodd;}</style><g
       id="g1"
       transform="matrix(0.26458333,0,0,0.26458333,224.40998,258.45555)"
       style="fill:#44aa00;fill-opacity:0.38249803"><path
         class="st0"
         d="M 0.36,15.78 C 0.66,22.76 1.2,30.2 2.1,37.77 l 21.5,1.25 z m 120.6,97.69 -11.6,-10.88 c 12.55,-18.33 15.86,-36.43 11.45,-54.03 -3.26,-9.99 -9.58,-17.97 -17.83,-24.33 l -1.06,70.41 -5.18,-5.09 1.51,-68.67 C 91.15,16.28 82.95,12.66 74.2,9.83 L 78.46,71.17 73.28,66.08 69.34,8.35 C 60.47,5.81 51.16,4.01 41.96,2.76 L 44.05,36.77 38.87,31.68 37.16,2.16 C 23.82,0.6 10.93,0.14 0.18,0.17 L 0,0 v 8.84 c 38.3,38.3 75.14,75.14 112.8,112.8 7.13,4.38 11.69,-3.89 8.16,-8.17 z M 2.71,42.57 c 1.27,9.21 3.1,18.52 5.67,27.39 L 57.92,73.34 28.75,44.17 Z m 7.16,32.25 c 2.87,8.74 6.53,16.92 11.18,23.99 l 61,-1.34 -18.96,-18.96 z m 14.58,28.72 c 6.3,8.04 14.18,14.18 23.99,17.39 16.01,4.01 32.29,1.72 48.9,-8.17 L 87.18,102.6 Z"
         id="path1"
         style="fill:#44aa00;fill-opacity:0.38249803" /></g></g><g
     inkscape:groupmode="layer"
     id="layer4"
     inkscape:label="Layer 4"
     style="display:inline" /></svg>
